<svg width="130" height="130" viewBox="0 0 130 130" fill="none" xmlns="http://www.w3.org/2000/svg">
<rect width="130" height="130" rx="47" fill="url(#paint0_linear_972_565)"/>
<path d="M34.5 60.5C28.9772 60.5 24.5 56.0228 24.5 50.5C24.5 44.9772 28.9772 40.5 34.5 40.5C40.0228 40.5 44.5 44.9772 44.5 50.5C44.5 56.0228 40.0228 60.5 34.5 60.5Z" stroke="white" stroke-width="3" stroke-linejoin="round"/>
<path fill-rule="evenodd" clip-rule="evenodd" d="M105 56.8582V79.5C105 84.1944 101.194 88 96.5 88C91.8056 88 88 84.1944 88 79.5V74.8528L85 77.9952V79.5C85 85.8513 90.1487 91 96.5 91C102.851 91 108 85.8513 108 79.5V50.5C108 44.9903 104.125 40.3855 98.9521 39.262C100.611 39.7694 102.18 40.6613 103.521 41.941C107.689 45.9203 108.214 52.2819 105 56.8582Z" fill="white"/>
<path fill-rule="evenodd" clip-rule="evenodd" d="M77.8898 81.0985C77.3368 85.0752 74.7502 88.4013 71.2143 89.9924C73.1944 89.468 75.0591 88.4081 76.5772 86.8179L103.898 58.2001C108.284 53.6062 108.115 46.3268 103.521 41.941C98.927 37.5553 91.6476 37.7241 87.2619 42.318L78 52.0196V56.3641L89.4318 44.3896C92.6734 40.9941 98.0539 40.8693 101.449 44.111C104.845 47.3526 104.97 52.733 101.728 56.1285L77.8898 81.0985Z" fill="white"/>
<path fill-rule="evenodd" clip-rule="evenodd" d="M75 56.8582V79.5C75 84.1944 71.1944 88 66.5 88C61.8056 88 58 84.1944 58 79.5V74.8528L55 77.9952V79.5C55 85.8513 60.1487 91 66.5 91C72.8513 91 78 85.8513 78 79.5V50.5C78 44.9903 74.1253 40.3855 68.9521 39.262C70.6113 39.7694 72.1805 40.6613 73.5209 41.941C77.6891 45.9203 78.2144 52.2819 75 56.8582Z" fill="white"/>
<rect x="-2.12075" y="0.0491737" width="20" height="59.5652" rx="10" transform="matrix(-0.723308 -0.690526 -0.690526 0.723308 78.2182 48.4313)" stroke="white" stroke-width="3" stroke-linejoin="round"/>
<defs>
<linearGradient id="paint0_linear_972_565" x1="66.9157" y1="7.40506" x2="66.9157" y2="105.316" gradientUnits="userSpaceOnUse">
<stop stop-color="#0A146D"/>
<stop offset="1" stop-color="#0151EC"/>
</linearGradient>
</defs>
</svg>
