<svg width="41" height="42" viewBox="0 0 41 42" fill="none" xmlns="http://www.w3.org/2000/svg">
<path d="M35.0101 6.10587C33.1223 4.16206 30.8738 2.62106 28.3958 1.57276C25.9178 0.524466 23.2599 -0.0101346 20.5772 0.00014549C9.3362 0.00014549 0.175038 9.33986 0.164741 20.8058C0.164741 24.4782 1.10686 28.0508 2.88555 31.2139L0 42L10.8214 39.1073C13.8138 40.7721 17.1685 41.6432 20.5772 41.6404H20.5875C31.8311 41.6404 40.9897 32.3007 41 20.8242C41.0023 18.0891 40.474 15.3806 39.4455 12.8546C38.4171 10.3286 36.9114 8.03497 35.0101 6.10587ZM20.5772 38.1176C17.5377 38.1152 14.5544 37.2812 11.9386 35.7026L11.3208 35.3246L4.90105 37.0414L6.61539 30.6548L6.21384 29.9959C4.51444 27.2405 3.61568 24.0504 3.62173 20.7953C3.62173 11.2771 11.2333 3.51238 20.5875 3.51238C22.816 3.50831 25.0232 3.9541 27.082 4.82407C29.1407 5.69404 31.0102 6.97097 32.5827 8.58124C34.1604 10.1855 35.4111 12.0923 36.2629 14.1917C37.1147 16.2911 37.5506 18.5417 37.5456 20.8137C37.5353 30.366 29.9237 38.1176 20.5772 38.1176ZM29.8825 25.1659C29.3754 24.9061 26.8708 23.6487 26.3998 23.4702C25.9313 23.2996 25.589 23.2103 25.2543 23.7301C24.912 24.2472 23.9338 25.4258 23.6404 25.7644C23.3469 26.1136 23.0432 26.1529 22.5335 25.8957C22.0264 25.6332 20.3816 25.0872 18.4356 23.3101C16.9169 21.9319 15.9001 20.2257 15.5964 19.7086C15.3029 19.1888 15.5681 18.9106 15.8229 18.6507C16.0468 18.4197 16.33 18.0417 16.5848 17.7425C16.8422 17.4432 16.9272 17.2227 17.0945 16.8762C17.2618 16.5245 17.182 16.2252 17.0559 15.9653C16.9272 15.7055 15.9104 13.1409 15.4805 12.1066C15.0687 11.0855 14.6491 11.2272 14.3351 11.2141C14.0416 11.1957 13.6993 11.1957 13.3569 11.1957C13.0984 11.2024 12.844 11.2635 12.6097 11.3751C12.3754 11.4866 12.1662 11.6463 11.9952 11.8441C11.5267 12.3639 10.2165 13.6212 10.2165 16.1858C10.2165 18.7505 12.0441 21.2153 12.3015 21.5644C12.5538 21.9136 15.8898 27.1609 21.0097 29.4184C22.2195 29.9565 23.1719 30.2742 23.9158 30.5157C25.1385 30.9147 26.2428 30.8543 27.1231 30.7257C28.1013 30.5734 30.1374 29.4657 30.5672 28.2503C30.9894 27.0323 30.9894 25.9928 30.8607 25.7749C30.7346 25.5544 30.3922 25.4258 29.8825 25.1659Z" fill="#2051E5"/>
</svg>
