<svg width="61" height="33" viewBox="0 0 61 33" fill="none" xmlns="http://www.w3.org/2000/svg">
<path d="M15.913 22C14.4543 22 13.2061 21.4619 12.1682 20.3857C11.1303 19.3096 10.6105 18.0143 10.6087 16.5C10.6087 14.9875 11.1285 13.6932 12.1682 12.617C13.2078 11.5408 14.4561 11.0018 15.913 11C17.3717 11 18.6209 11.539 19.6606 12.617C20.7002 13.695 21.2192 14.9893 21.2174 16.5C21.2174 18.0125 20.6985 19.3078 19.6606 20.3857C18.6227 21.4638 17.3735 22.0018 15.913 22ZM15.913 33C11.4928 33 7.73551 31.3958 4.6413 28.1875C1.5471 24.9792 0 21.0833 0 16.5C0 11.9167 1.5471 8.02083 4.6413 4.8125C7.73551 1.60417 11.4928 0 15.913 0C18.8746 0 21.5604 0.756249 23.9703 2.26875C26.3803 3.78125 28.2916 5.775 29.7043 8.25H53.0435L61 16.5L49.0652 28.875L43.7609 24.75L38.4565 28.875L32.8207 24.75H29.7043C28.2899 27.225 26.3785 29.2187 23.9703 30.7312C21.5622 32.2437 18.8764 33 15.913 33ZM15.913 27.5C18.3884 27.5 20.5658 26.7208 22.4453 25.1625C24.3249 23.6042 25.5731 21.6333 26.1902 19.25H34.4783L38.3239 22.0687L43.7609 17.875L48.4685 21.6562L53.4413 16.5L50.7891 13.75H26.1902C25.5714 11.3667 24.3231 9.39583 22.4453 7.8375C20.5676 6.27917 18.3902 5.5 15.913 5.5C12.9957 5.5 10.4982 6.57708 8.42065 8.73125C6.34312 10.8854 5.30435 13.475 5.30435 16.5C5.30435 19.525 6.34312 22.1146 8.42065 24.2687C10.4982 26.4229 12.9957 27.5 15.913 27.5Z" fill="#2051E5"/>
</svg>
