<svg width="37" height="41" viewBox="0 0 37 41" fill="none" xmlns="http://www.w3.org/2000/svg">
<path d="M3.7 41C2.6825 41 1.81177 40.5543 1.0878 39.6629C0.363833 38.7716 0.00123333 37.6987 0 36.4444V4.55555C0 3.30278 0.3626 2.2307 1.0878 1.33933C1.813 0.447963 2.68373 0.00151852 3.7 0H14.8C15.8175 0 16.6888 0.446445 17.414 1.33933C18.1392 2.23222 18.5012 3.3043 18.5 4.55555V9.11111H33.3C34.3175 9.11111 35.1888 9.55755 35.914 10.4504C36.6392 11.3433 37.0012 12.4154 37 13.6667V36.4444C37 37.6972 36.638 38.7701 35.914 39.6629C35.1901 40.5558 34.3187 41.0015 33.3 41H3.7ZM3.7 36.4444H14.8V31.8889H3.7V36.4444ZM3.7 27.3333H14.8V22.7778H3.7V27.3333ZM3.7 18.2222H14.8V13.6667H3.7V18.2222ZM3.7 9.11111H14.8V4.55555H3.7V9.11111ZM18.5 36.4444H33.3V13.6667H18.5V36.4444ZM24.05 22.7778C23.5258 22.7778 23.0868 22.5591 22.7328 22.1218C22.3788 21.6844 22.2012 21.1438 22.2 20.5C22.2 19.8546 22.3776 19.314 22.7328 18.8782C23.088 18.4424 23.5271 18.2237 24.05 18.2222H27.75C28.2742 18.2222 28.7138 18.4409 29.069 18.8782C29.4242 19.3156 29.6012 19.8561 29.6 20.5C29.6 21.1454 29.4224 21.6867 29.0672 22.1241C28.712 22.5614 28.2729 22.7793 27.75 22.7778H24.05ZM24.05 31.8889C23.5258 31.8889 23.0868 31.6702 22.7328 31.2329C22.3788 30.7956 22.2012 30.255 22.2 29.6111C22.2 28.9657 22.3776 28.4251 22.7328 27.9893C23.088 27.5535 23.5271 27.3348 24.05 27.3333H27.75C28.2742 27.3333 28.7138 27.552 29.069 27.9893C29.4242 28.4267 29.6012 28.9673 29.6 29.6111C29.6 30.2565 29.4224 30.7978 29.0672 31.2352C28.712 31.6725 28.2729 31.8904 27.75 31.8889H24.05Z" fill="#2051E5"/>
</svg>
