<svg width="45" height="32" viewBox="0 0 45 32" fill="none" xmlns="http://www.w3.org/2000/svg">
<path d="M40.9091 9.41211C37.9432 9.41211 36.2864 12.1226 36.9614 14.1367L29.7 20.8378C29.0864 20.6684 28.1864 20.6684 27.5727 20.8378L22.3568 16.0379C23.0523 14.0238 21.3955 11.2944 18.4091 11.2944C15.4432 11.2944 13.7659 14.005 14.4614 16.0379L5.13409 24.6024C2.94545 23.9813 0 25.5059 0 28.2353C0 30.3058 1.84091 31.9999 4.09091 31.9999C7.05682 31.9999 8.71364 29.2894 8.03864 27.2753L17.3455 18.6919C17.9591 18.8613 18.8591 18.8613 19.4727 18.6919L24.6886 23.4919C23.9932 25.5059 25.65 28.2353 28.6364 28.2353C31.6023 28.2353 33.2795 25.5248 32.5841 23.4919L39.8659 16.8096C42.0545 17.4308 45 15.9061 45 13.1767C45 11.1062 43.1591 9.41211 40.9091 9.41211Z" fill="#ABABAB"/>
<path d="M28.6364 11.2939L30.5591 7.39751L34.7727 5.64696L30.5591 3.8964L28.6364 0L26.7545 3.8964L22.5 5.64696L26.7545 7.39751L28.6364 11.2939ZM5.11364 15.0586L6.13636 11.2939L10.2273 10.3528L6.13636 9.41159L5.11364 5.64696L4.09091 9.41159L0 10.3528L4.09091 11.2939L5.11364 15.0586Z" fill="#ABABAB"/>
</svg>
