<svg width="89" height="81" viewBox="0 0 89 81" fill="none" xmlns="http://www.w3.org/2000/svg">
<path d="M2.5 16.2165C2.5 10.8028 6.88869 6.41406 12.3024 6.41406H12.6831C18.0968 6.41406 22.4855 10.8028 22.4855 16.2165C22.4855 21.6302 18.0968 26.0189 12.6831 26.0189H12.3024C6.88868 26.0189 2.5 21.6302 2.5 16.2165Z" stroke="#2051E5" stroke-width="3" stroke-linejoin="round"/>
<path fill-rule="evenodd" clip-rule="evenodd" d="M82.9464 22.4667V44.5279C82.9464 49.2183 79.1441 53.0206 74.4537 53.0206C69.7633 53.0206 65.9609 49.2183 65.9609 44.5279V40.1493L62.9609 43.2397V44.5279C62.9609 50.8751 68.1064 56.0206 74.4537 56.0206C80.8009 56.0206 85.9464 50.8751 85.9464 44.5279V16.4068C85.9464 10.9158 82.0956 6.32423 76.9472 5.1853C78.5898 5.68571 80.1426 6.55775 81.4706 7.80456C85.6349 11.7143 86.1584 17.9662 82.9464 22.4667Z" fill="#2051E5"/>
<path fill-rule="evenodd" clip-rule="evenodd" d="M55.8323 46.2753C55.232 50.2113 52.6351 53.4906 49.1074 55.0475C51.1164 54.5384 53.0104 53.4887 54.5488 51.904L81.84 23.7906C86.2263 19.2721 86.0604 12.1149 81.4693 7.80451C76.8783 3.49415 69.6007 3.66287 65.2144 8.18136L55.9643 17.7101V22.0166L67.4015 10.2348C70.6338 6.90511 75.9966 6.78078 79.3797 9.95707C82.7628 13.1334 82.8851 18.4075 79.6528 21.7371L55.8323 46.2753Z" fill="#2051E5"/>
<path fill-rule="evenodd" clip-rule="evenodd" d="M52.9649 22.4667V44.5279C52.9649 49.2183 49.1626 53.0206 44.4722 53.0206C39.7818 53.0206 35.9795 49.2183 35.9795 44.5279V40.1493L32.9795 43.2397V44.5279C32.9795 50.8751 38.125 56.0206 44.4722 56.0206C50.8195 56.0206 55.9649 50.8751 55.9649 44.5279V16.4068C55.9649 10.9158 52.1141 6.32423 46.9658 5.1853C48.6083 5.68571 50.1611 6.55775 51.4891 7.80456C55.6534 11.7143 56.177 17.9662 52.9649 22.4667Z" fill="#2051E5"/>
<rect x="-2.13836" y="0.0495752" width="19.8047" height="58.9861" rx="9.90237" transform="matrix(-0.72904 -0.684471 -0.696536 0.717522 56.138 14.1595)" stroke="#2051E5" stroke-width="3" stroke-linejoin="round"/>
<path d="M5.87902 76.0037V62.0037H8.01902L14.139 72.2237H13.019L19.039 62.0037H21.179L21.199 76.0037H18.739L18.719 65.8637H19.239L14.119 74.4037H12.959L7.75902 65.8637H8.35902V76.0037H5.87902ZM27.3806 67.8237H34.3406V69.9637H27.3806V67.8237ZM27.5806 73.8237H35.4806V76.0037H24.9806V62.0037H35.2006V64.1837H27.5806V73.8237ZM38.379 76.0037V62.0037H44.139C45.379 62.0037 46.439 62.2037 47.319 62.6037C48.2124 63.0037 48.899 63.577 49.379 64.3237C49.859 65.0703 50.099 65.957 50.099 66.9837C50.099 68.0103 49.859 68.897 49.379 69.6437C48.899 70.377 48.2124 70.9437 47.319 71.3437C46.439 71.7303 45.379 71.9237 44.139 71.9237H39.819L40.979 70.7437V76.0037H38.379ZM47.539 76.0037L43.999 70.9237H46.779L50.339 76.0037H47.539ZM40.979 71.0237L39.819 69.7837H44.019C45.1657 69.7837 46.0257 69.537 46.599 69.0437C47.1857 68.5503 47.479 67.8637 47.479 66.9837C47.479 66.0903 47.1857 65.4037 46.599 64.9237C46.0257 64.4437 45.1657 64.2037 44.019 64.2037H39.819L40.979 62.9237V71.0237ZM51.0279 76.0037L57.3279 62.0037H59.8879L66.2079 76.0037H63.4879L58.0679 63.3837H59.1079L53.7079 76.0037H51.0279ZM53.9279 72.7637L54.6279 70.7237H62.1879L62.8879 72.7637H53.9279ZM67.9884 76.0037V62.0037H70.5884V76.0037H67.9884ZM84.2151 62.0037H86.8151V76.0037H84.2151V62.0037ZM76.9751 76.0037H74.3751V62.0037H76.9751V76.0037ZM84.4151 70.0037H76.7551V67.7837H84.4151V70.0037Z" fill="#2051E5"/>
</svg>
